<svg width="82" height="81" viewBox="0 0 82 81" fill="none" xmlns="http://www.w3.org/2000/svg">
<g clip-path="url(#clip0_105_250)">
<path d="M67.4184 39.4707C70.7449 51.6487 61.1933 60.8275 47.3444 64.6104C33.4955 68.3933 20.6041 65.3449 17.2776 53.1669C15.8812 47.4205 16.423 41.3637 18.822 35.8997C20.659 31.3638 23.6854 27.3727 27.5923 24.3339C29.8824 22.5732 32.5019 21.2731 35.298 20.5093C38.0941 19.7455 41.0108 19.5334 43.878 19.8853C48.7872 20.516 53.4223 22.4143 57.3101 25.3865C62.1538 28.8721 65.6995 33.8124 67.4184 39.4707Z" fill="#D8D9DD"/>
<path d="M27.5949 24.3436C23.6881 27.3825 20.6617 31.3735 18.8247 35.9094C17.4039 35.7166 16.0627 35.1651 14.9324 34.3088C13.8022 33.4525 12.9214 32.3207 12.3763 31.0241C11.8312 29.7275 11.6404 28.3105 11.8226 26.9115C12.0047 25.5126 12.5536 24.1796 13.4155 23.0429C14.2775 21.9062 15.423 21.0048 16.74 20.4266C18.0571 19.8485 19.5006 19.6134 20.9295 19.7445C22.3584 19.8756 23.7238 20.3683 24.8921 21.1744C26.0604 21.9806 26.9917 23.0725 27.5949 24.3436Z" fill="#434347"/>
<path d="M60.172 16.8874C60.5899 18.4147 60.5419 20.0337 60.0339 21.5454C59.526 23.0571 58.5802 24.3955 57.3127 25.3962C53.4249 22.4241 48.7898 20.5258 43.8806 19.8951C43.6994 17.8696 44.3 15.8421 45.564 14.2124C46.828 12.5828 48.6636 11.4694 50.7088 11.0918C52.7539 10.7142 54.8601 11.0999 56.6119 12.1728C58.3637 13.2457 59.6339 14.9278 60.172 16.8874Z" fill="#434347"/>
<path d="M29.4976 51.5873C28.6335 51.8397 27.7242 51.895 26.8398 51.749C25.9553 51.603 25.1191 51.2597 24.3957 50.7454C23.6723 50.2311 23.0809 49.5596 22.6671 48.7826C22.2532 48.0055 22.0279 47.1436 22.0085 46.2632C21.7187 41.2572 27.4388 36.3572 31.1091 35.3547C38.2592 33.4016 38.182 49.2152 29.4976 51.5873Z" fill="#434347"/>
<path d="M56.0922 44.3228C56.9646 44.1008 57.7757 43.6861 58.4632 43.1108C59.1506 42.5354 59.6961 41.8147 60.0576 41.0041C60.4191 40.1935 60.587 39.3146 60.5483 38.435C60.5097 37.5554 60.2655 36.6987 59.8347 35.9307C57.5393 31.4725 50.1225 30.1609 46.4522 31.1635C39.3021 33.1166 47.4079 46.6949 56.0922 44.3228Z" fill="#434347"/>
<path d="M32.13 42.4455C32.9608 42.2186 33.4545 41.3767 33.2328 40.5651C33.0111 39.7534 32.1579 39.2794 31.3272 39.5064C30.4964 39.7333 30.0027 40.5752 30.2244 41.3868C30.4461 42.1985 31.2993 42.6725 32.13 42.4455Z" fill="#2D2D2D"/>
<path d="M49.1779 37.7888C50.0086 37.5619 50.5024 36.72 50.2807 35.9083C50.059 35.0967 49.2058 34.6227 48.375 34.8496C47.5443 35.0765 47.0505 35.9185 47.2722 36.7301C47.4939 37.5417 48.3471 38.0157 49.1779 37.7888Z" fill="#2D2D2D"/>
<path d="M45.4711 57.7524C45.2051 57.8251 44.9219 57.7915 44.6836 57.6591C44.4454 57.5268 44.2716 57.3064 44.2007 57.0466L42.5949 51.1682C42.524 50.9084 42.5616 50.6303 42.6994 50.3952C42.8373 50.1601 43.0642 49.9872 43.3301 49.9146C43.5961 49.8419 43.8794 49.8755 44.1176 50.0078C44.3559 50.1402 44.5296 50.3605 44.6006 50.6204L46.2063 56.4988C46.2773 56.7586 46.2397 57.0367 46.1018 57.2718C45.9639 57.5069 45.7371 57.6798 45.4711 57.7524Z" fill="#434347"/>
<path d="M50.4852 56.3828L40.457 59.1221C40.191 59.1947 39.9078 59.1612 39.6695 59.0288C39.4313 58.8964 39.2575 58.6761 39.1866 58.4163C39.1156 58.1564 39.1532 57.8784 39.291 57.6432C39.4289 57.4081 39.6558 57.2352 39.9218 57.1626L49.9499 54.4234C50.2159 54.3507 50.4992 54.3843 50.7374 54.5166C50.9757 54.649 51.1494 54.8693 51.2204 55.1292C51.2913 55.389 51.2538 55.6671 51.1159 55.9022C50.978 56.1373 50.7511 56.3102 50.4852 56.3828Z" fill="#434347"/>
<path d="M43.6994 51.2666L41.1634 50.7801C40.8983 50.7289 40.654 50.606 40.458 50.4251C40.2619 50.2443 40.122 50.0127 40.054 49.7566C39.9554 49.3954 40.0076 49.0089 40.1993 48.6821C40.3909 48.3553 40.7063 48.115 41.076 48.014L44.305 47.132C44.6747 47.031 45.0685 47.0776 45.3996 47.2616C45.7308 47.4456 45.9723 47.7519 46.0709 48.113C46.138 48.3659 46.1323 48.6327 46.0546 48.8843C45.9769 49.1358 45.8302 49.3623 45.6306 49.5388L43.6994 51.2666Z" fill="#3E2C27"/>
</g>
<defs>
<clipPath id="clip0_105_250">
<rect width="66.5315" height="65" fill="white" transform="translate(0 17.5312) rotate(-15.2779)"/>
</clipPath>
</defs>
</svg>
